<?xml version="1.0" standalone="no"?>
<!DOCTYPE svg PUBLIC "-//W3C//DTD SVG 20010904//EN"
 "http://www.w3.org/TR/2001/REC-SVG-20010904/DTD/svg10.dtd">
<svg version="1.0" xmlns="http://www.w3.org/2000/svg"
 width="512.000000pt" height="512.000000pt" viewBox="0 0 512.000000 512.000000"
 preserveAspectRatio="xMidYMid meet">

<g transform="translate(0.000000,512.000000) scale(0.100000,-0.100000)"
fill="#000000" stroke="none">
<path d="M2213 4790 c-545 -53 -1048 -282 -1426 -649 -329 -319 -549 -719
-636 -1156 -194 -975 297 -1956 1210 -2411 641 -320 1381 -336 2039 -44 457
202 862 579 1086 1009 32 62 39 86 42 147 7 123 -42 225 -136 285 -153 97
-350 55 -441 -94 -134 -219 -199 -306 -310 -417 -141 -140 -265 -229 -436
-315 -238 -119 -452 -173 -720 -182 -490 -16 -934 156 -1270 492 -226 226
-373 495 -441 805 -27 122 -27 478 0 600 46 211 142 428 263 600 87 122 261
296 383 383 119 84 322 186 461 231 312 101 669 113 984 31 402 -105 754 -353
979 -689 25 -38 44 -71 42 -73 -1 -2 -75 12 -164 32 -178 39 -225 42 -299 20
-176 -52 -269 -260 -194 -431 26 -57 90 -125 143 -152 48 -23 1055 -252 1111
-252 90 0 206 62 255 135 39 59 371 945 378 1011 8 64 -16 151 -58 211 -120
176 -396 176 -516 1 -16 -24 -44 -83 -62 -133 -18 -49 -36 -94 -40 -98 -4 -4
-36 37 -72 91 -357 536 -938 896 -1608 996 -128 20 -422 28 -547 16z"/>
</g>
</svg>
